# xmcd
#
# Track frame offsets: 
#        150
#        12091
#        25932
#        36465
#        50259
#        64358
#
# Disc length: 980 seconds
#
# Revision: 0
# Processed by: cddbd v1.5.2PL0 Copyright (c) Steve Scherf et al.
# Submitted via: ExactAudioCopy v1.0b4
#
DISCID=4a03d206
DTITLE=Sonny Terry and Brownie McGhee - La Grande Historia Del Rock 26 F
DTITLE=ace B (LP)
DYEAR=1900
DGENRE=Blues
TTITLE0=Love' s A Disease
TTITLE1=Confusing
TTITLE2=Uncle Bud
TTITLE3=Climbing On Top Of The Hill
TTITLE4=I Need A Woman
TTITLE5=Chicken Hop
EXTD=
EXTT0=
EXTT1=
EXTT2=
EXTT3=
EXTT4=
EXTT5=
PLAYORDER=
